<?xml version="1.0" standalone="no"?>
<!DOCTYPE svg PUBLIC "-//W3C//DTD SVG 20010904//EN"
 "http://www.w3.org/TR/2001/REC-SVG-20010904/DTD/svg10.dtd">
<svg version="1.0" xmlns="http://www.w3.org/2000/svg"
 width="160.000000pt" height="160.000000pt" viewBox="0 0 160.000000 160.000000"
 preserveAspectRatio="xMidYMid meet">
<metadata>
Created by potrace 1.11, written by Peter Selinger 2001-2013
</metadata>
<g transform="translate(0.000000,160.000000) scale(0.100000,-0.100000)"
fill="#000000" stroke="none">
<path d="M488 1290 c5 -58 -39 -217 -46 -167 -2 15 -7 27 -11 27 -4 0 -14 -12
-21 -27 -8 -16 -21 -36 -29 -46 -12 -15 -13 -30 -2 -100 6 -45 14 -98 17 -117
5 -31 4 -33 -7 -15 -7 10 -18 37 -25 60 -18 56 -17 13 0 -72 20 -94 24 -101
62 -119 42 -20 69 -13 55 14 -5 10 -13 42 -17 70 -3 28 -11 49 -15 46 -5 -3
-8 39 -5 98 3 88 8 113 35 173 17 39 31 78 31 89 0 13 5 16 18 11 9 -3 55 -18
102 -32 79 -24 99 -26 297 -27 l212 -1 27 -66 c25 -63 26 -73 19 -169 -4 -56
-13 -125 -21 -153 -18 -69 -8 -81 49 -54 31 14 42 37 62 135 18 86 18 85 6 78
-4 -3 -14 -26 -21 -51 -15 -53 -31 -52 -20 2 25 122 31 210 20 268 -6 33 -12
69 -14 80 -4 24 -12 24 -156 0 -139 -23 -263 -15 -391 23 -96 30 -185 67 -195
83 -13 21 -19 5 -16 -41z"/>
<path d="M562 1065 c-41 -18 -42 -51 -2 -48 145 14 163 20 140 48 -16 19 -94
19 -138 0z"/>
<path d="M943 1074 c-7 -3 -13 -14 -13 -23 0 -15 11 -19 63 -24 34 -3 70 -8
79 -12 24 -10 36 22 16 42 -16 15 -122 28 -145 17z"/>
<path d="M544 956 c-19 -19 -34 -40 -34 -47 1 -8 7 -2 16 13 8 15 29 35 47 43
22 11 27 12 15 2 -43 -34 -40 -92 7 -123 24 -16 29 -16 60 -1 43 21 55 58 32
101 -17 31 -17 31 13 -4 16 -19 30 -28 30 -21 0 7 -13 26 -29 42 -24 24 -38
29 -76 29 -40 0 -52 -5 -81 -34z m76 -17 c0 -5 -7 -9 -15 -9 -15 0 -20 12 -9
23 8 8 24 -1 24 -14z"/>
<path d="M936 964 c-14 -15 -26 -34 -26 -43 1 -10 6 -6 16 11 8 15 23 32 34
38 31 17 34 11 6 -11 -53 -42 -23 -122 46 -122 62 0 89 73 43 118 -13 14 -19
25 -14 25 6 0 26 -15 45 -34 19 -19 34 -30 34 -24 0 5 -13 23 -29 39 -25 24
-38 29 -79 29 -40 0 -54 -5 -76 -26z m64 -19 c0 -8 -4 -15 -10 -15 -5 0 -10 7
-10 15 0 8 5 15 10 15 6 0 10 -7 10 -15z"/>
<path d="M747 743 c-4 -3 -7 -15 -7 -25 0 -17 7 -19 78 -16 60 2 77 6 77 18 0
9 -7 14 -20 12 -11 -2 -35 -6 -53 -9 -22 -4 -39 0 -51 11 -10 9 -21 13 -24 9z"/>
<path d="M244 655 c-3 -14 -1 -97 5 -186 l11 -161 -26 -31 c-37 -44 -71 -115
-94 -198 -11 -41 -20 -75 -20 -76 0 -2 313 -3 696 -3 657 0 695 1 690 18 -3 9
-10 37 -16 61 -17 65 -53 142 -84 178 l-27 32 12 171 c6 94 8 182 5 195 l-6
25 -570 0 -570 0 -6 -25z m606 -265 c-6 -11 -7 -20 -3 -19 27 5 35 -2 29 -27
-4 -14 -2 -32 4 -39 8 -10 8 -19 0 -34 -8 -16 -20 -21 -55 -21 -50 0 -75 24
-75 72 0 29 33 60 55 52 7 -3 15 4 18 15 3 12 12 21 21 21 14 0 15 -4 6 -20z"/>
</g>
</svg>
